<svg width="1175" height="976" viewBox="0 0 1175 976" fill="none" xmlns="http://www.w3.org/2000/svg">
<path fill-rule="evenodd" clip-rule="evenodd" d="M939.154 864.588C950.86 856.263 957.884 840.655 957.884 825.826C957.884 819.323 953.722 813.34 953.461 806.316C952.941 801.893 955.803 795.91 955.543 792.008C951.901 763.392 925.626 745.182 913.139 728.013C911.318 639.564 840.299 595.08 802.058 540.97C835.877 565.163 874.378 584.934 904.294 613.03C909.237 615.891 911.578 613.55 917.302 613.29C937.853 639.044 958.924 664.538 1002.37 668.44C1010.69 675.464 1026.56 690.812 1039.57 679.106C1042.43 661.156 1021.36 661.156 1014.07 649.45C1011.21 644.247 1011.99 636.442 1009.91 631.76C1004.71 620.053 994.304 607.046 984.939 597.161C969.59 582.073 945.137 563.602 917.562 559.96C895.189 529.003 857.208 507.151 820.528 488.421C789.051 472.552 751.07 460.326 712.569 455.123C721.674 446.018 727.657 433.531 737.803 424.946C804.66 438.734 890.247 465.268 975.313 457.984C1051.28 451.481 1107.21 414.801 1122.29 344.562C1152.47 327.653 1196.96 251.431 1162.1 220.734C1072.87 220.474 1009.13 248.049 934.211 264.178C868.135 278.746 803.879 291.233 739.104 308.662C738.323 301.639 733.901 299.297 732.86 292.273C749.509 281.608 763.297 270.942 777.345 257.414C797.636 239.204 821.569 223.075 819.488 184.054C818.447 158.56 823.13 128.904 820.008 99.7678C818.707 89.6222 810.383 80.7773 807.521 70.3716C804.66 59.7058 810.123 48.7797 801.538 40.9755C788.791 40.4552 788.271 59.4456 791.132 70.1115C767.719 90.6628 763.557 157.519 781.767 185.095C748.469 200.183 725.316 226.717 710.748 261.316C703.724 256.894 695.4 253.772 689.937 247.789C720.113 187.696 671.467 127.603 631.144 105.491C650.915 85.1998 672.507 61.2666 703.464 50.0805C726.617 41.7559 759.915 47.479 754.452 17.0423C731.299 3.5149 722.715 21.7249 712.309 29.0089C697.221 38.8943 664.703 55.0232 646.493 69.5912C635.046 78.436 623.08 98.4671 613.455 101.329C598.627 105.491 584.839 98.4671 571.051 101.849C559.865 47.7392 528.648 4.29532 469.856 0.65332C463.872 7.41703 462.312 20.6843 469.596 26.4075C478.18 34.2118 484.944 25.6271 493.789 25.1068C539.314 25.1068 545.557 67.7702 558.304 104.45C529.949 128.644 474.278 152.056 479.741 207.727C481.562 225.417 490.147 238.944 499.772 252.211C493.008 252.472 487.546 263.658 483.383 261.316C464.393 219.954 441.5 183.013 411.063 152.837C421.209 130.725 455.288 104.19 453.207 74.2738C452.947 68.2905 447.744 58.6652 445.663 51.6413C443.842 44.0972 444.362 33.6915 436.297 30.3096C428.493 36.0328 425.892 47.9993 427.713 59.1855C421.989 60.7463 419.908 65.4289 416.006 70.3716C404.3 84.9396 371.262 137.488 375.164 163.503C375.944 169.226 383.228 175.729 386.35 181.713C393.114 196.021 397.536 212.149 409.503 227.758C428.753 252.732 445.662 268.6 468.295 285.51C462.832 291.233 461.011 301.639 453.207 305.02C325.477 284.989 163.928 244.927 27.0926 242.066C17.2072 241.806 3.67975 263.918 2.1189 270.682C-6.46582 313.605 26.3122 327.913 47.3838 346.383C58.8301 371.097 84.5842 384.364 104.355 400.753C113.2 408.037 122.045 417.662 131.41 424.166C217.517 479.576 365.278 441.595 455.808 418.443C459.97 430.149 472.717 442.116 476.359 449.4C405.6 463.708 337.443 481.137 282.293 511.834C276.049 509.493 267.465 510.013 259.4 511.574C232.866 516.777 180.057 558.139 172.252 574.528C168.61 582.073 169.391 591.178 168.61 598.982C161.586 612.769 147.799 619.273 138.954 630.979C156.123 647.629 173.293 624.736 179.796 610.688C225.321 611.989 248.734 575.309 281.512 557.619C329.899 556.839 368.66 531.865 410.283 518.598C374.383 547.734 329.899 591.438 299.202 632.54C284.114 653.092 266.944 686.13 283.073 706.941C266.944 726.192 238.329 747.003 235.987 780.562C234.947 803.714 247.434 859.125 259.921 872.132C269.286 881.497 284.634 880.717 287.236 892.163C289.057 902.569 275.009 923.64 283.073 934.306C306.746 929.884 311.689 894.764 304.145 871.612C318.713 831.81 301.283 762.352 314.03 714.485C322.095 716.046 325.997 712.924 332.24 711.624C367.62 656.994 395.715 585.715 440.98 547.213C429.273 586.235 424.851 648.929 426.412 692.893C428.753 758.71 442.021 824.526 479.221 865.628C485.464 872.652 494.049 876.294 499.772 883.578C529.168 920.779 555.703 982.432 625.681 975.409C655.077 972.287 663.922 946.012 680.051 927.802C698.521 907.511 722.975 889.041 738.063 864.328C791.132 775.879 773.182 636.703 746.908 542.271C794.254 586.495 832.495 646.328 856.948 711.364C862.671 726.452 865.793 736.858 875.419 745.963C888.166 790.967 886.865 849.239 921.204 873.433C923.285 888.781 913.399 899.187 918.862 912.454C939.154 918.437 942.535 883.838 939.154 864.588ZM929.268 582.333C957.364 594.559 984.418 612.509 991.182 647.108C959.185 635.662 931.349 620.053 926.407 582.333C927.187 582.593 927.967 582.333 929.268 582.333ZM402.219 138.529C406.121 115.897 414.966 84.1592 436.037 74.794C433.696 104.45 413.145 116.157 402.219 138.529ZM397.276 173.908C399.877 171.307 401.438 167.405 407.161 167.665C428.493 193.939 445.662 224.636 462.051 256.374C432.135 236.083 415.746 204.345 397.276 173.908ZM183.699 592.218C201.909 563.863 227.403 535.247 267.465 535.507C245.092 559.7 217.257 585.975 183.699 592.218ZM1104.34 358.09C1059.86 486.34 828.072 437.693 709.968 398.152C734.161 398.152 760.175 403.615 785.929 408.297C834.576 416.622 889.726 426.767 952.421 423.385C1016.94 419.223 1064.8 387.486 1104.34 358.09ZM714.39 333.116C772.402 319.328 832.755 304.76 893.889 291.493C976.614 273.803 1052.06 254.032 1139.72 243.367C1143.63 242.586 1148.05 240.245 1154.29 243.887C1148.31 265.219 1142.33 287.331 1132.18 303.72C1089.52 369.276 994.564 412.459 880.621 403.615C833.796 399.712 785.149 388.006 738.583 382.543C731.559 381.503 722.455 381.763 714.39 380.202C709.708 379.161 698.261 379.421 696.7 371.617C697.741 362.252 708.407 369.796 711.008 370.316C759.655 377.34 837.177 381.763 892.068 380.722C877.5 367.715 850.965 372.918 829.113 371.617C791.913 368.495 741.965 366.674 707.626 359.13C787.49 353.667 863.972 345.082 930.049 325.051C864.753 330.514 802.579 341.18 725.316 343.001C716.992 343.001 699.822 347.164 694.359 342.221C698.001 335.978 708.407 334.677 714.39 333.116ZM797.636 85.1997C809.342 102.369 802.579 145.293 799.197 167.665C792.953 144.252 782.027 106.792 797.636 85.1997ZM776.564 211.369C782.547 204.605 785.409 193.419 794.774 192.639C801.538 211.109 783.588 226.457 772.662 237.643C760.435 249.87 744.307 259.756 733.12 269.381C737.803 245.708 760.956 229.059 776.564 211.369ZM619.698 501.428C646.233 498.567 670.686 476.715 689.677 498.046C643.371 520.679 561.426 523.28 499.772 510.013C517.462 470.731 575.734 505.851 619.698 501.428ZM264.603 435.092C206.331 437.953 158.205 421.044 124.646 394.51C213.615 424.686 374.643 400.233 473.498 387.486C474.538 387.486 475.839 387.486 476.88 387.746C420.689 403.615 338.744 431.71 264.603 435.092ZM312.73 389.307C233.126 394.249 161.847 398.932 102.274 366.674C90.5675 360.171 77.0401 350.285 65.5938 341.44C53.8874 332.596 38.799 322.97 32.0353 314.906C14.3456 292.534 16.1666 257.674 51.2859 255.333C67.9351 254.032 87.7059 261.056 106.176 262.877C232.345 276.145 349.15 310.744 474.278 322.71C392.593 324.791 315.591 308.402 233.386 306.061C308.307 327.393 412.104 336.498 498.471 336.238C499.512 350.285 481.562 346.383 474.018 347.424C409.763 354.708 319.493 353.927 250.295 357.049C324.176 371.877 419.128 364.073 493.529 358.87C445.402 379.421 381.667 384.624 312.73 389.307ZM275.269 859.905C250.815 819.063 250.035 747.523 292.959 725.932C280.472 771.196 307.006 839.094 275.269 859.905ZM369.441 602.624C351.751 633.061 340.825 667.66 320.534 695.235C312.469 693.674 302.844 694.194 296.08 691.593C300.503 647.889 332.24 614.33 358.255 589.096C382.448 565.944 406.381 543.311 431.095 525.622C412.104 549.034 387.13 572.187 369.441 602.624ZM289.837 540.97C303.885 514.956 339.264 506.631 370.221 495.445C403.78 483.999 437.598 472.292 476.359 468.65C414.966 493.884 361.897 527.443 289.837 540.97ZM488.326 519.378C546.338 541.23 643.631 533.686 692.278 514.175C707.626 507.932 712.309 530.044 719.073 542.271C666.264 583.633 542.436 575.829 471.156 553.197C475.579 540.19 481.822 530.044 488.326 519.378ZM641.03 937.428C632.705 942.891 621.519 940.55 617.617 951.476C584.839 953.297 560.646 936.907 551.801 921.039C577.035 925.721 614.235 931.184 637.648 922.86C606.431 910.113 562.987 921.819 537.753 905.95C522.925 896.585 524.746 879.676 510.698 869.53C557.004 879.676 646.753 887.22 693.579 870.311C677.71 884.619 663.142 923.12 641.03 937.428ZM709.968 845.337C689.156 854.962 654.037 863.027 615.536 864.067C573.913 865.628 517.202 863.287 492.748 846.898C475.839 835.712 474.538 815.941 464.653 801.113C534.371 823.485 662.361 829.468 727.137 797.211C731.039 810.478 714.65 830.249 709.968 845.337ZM737.023 774.578C667.564 807.877 539.314 815.941 459.71 783.163C455.028 771.717 456.849 753.247 454.247 739.199C537.233 758.97 657.679 761.311 739.104 743.621C746.648 749.865 736.242 764.173 737.023 774.578ZM746.388 726.192C662.882 744.402 534.371 741.8 453.467 718.387C453.727 701.998 451.125 687.43 452.946 669.741C535.672 694.194 661.061 705.901 747.168 686.13C747.688 701.478 747.948 710.583 746.388 726.192ZM745.867 670.781C654.037 689.251 539.574 672.862 452.686 654.652C453.987 639.564 454.507 623.175 456.849 609.127C527.087 645.547 663.662 653.872 738.583 620.314C742.485 635.922 743.266 654.652 745.867 670.781ZM735.722 606.006C661.581 639.044 528.908 632.02 458.93 596.641C458.149 583.113 461.791 574.528 464.653 564.383C534.631 595.86 667.824 599.502 725.836 558.66C731.559 571.667 734.941 587.796 735.722 606.006ZM762.777 496.225C745.087 487.641 725.056 483.478 706.586 474.113C703.984 472.552 701.643 475.414 701.643 468.91C769.801 483.478 834.836 507.932 881.402 545.913C893.629 555.798 914.7 566.984 906.636 585.454C888.946 578.951 874.118 567.244 858.769 556.839C829.373 536.548 796.855 513.655 762.777 496.225ZM884.003 727.492C873.598 724.111 873.337 710.843 869.955 703.039C844.461 643.206 812.464 581.552 766.679 538.889C765.118 538.629 765.378 537.068 764.858 535.507C766.158 534.987 766.419 533.946 768.24 533.686C769.801 533.946 769.8 535.247 771.361 535.507C814.545 572.707 854.607 619.273 884.784 674.163C892.068 686.39 910.538 720.469 884.003 727.492ZM891.547 749.865C895.71 746.743 899.872 744.402 906.115 743.881C927.187 767.554 946.958 801.113 931.349 846.638C894.929 842.996 904.294 782.122 891.547 749.865Z" fill="#EBB67A"/>
</svg>
