<svg width="95" height="95" viewBox="0 0 95 95" fill="none" xmlns="http://www.w3.org/2000/svg">
<path fill-rule="evenodd" clip-rule="evenodd" d="M47.5 0C21.2665 0 0 21.2665 0 47.5C0 73.7335 21.2665 95 47.5 95C73.7335 95 95 73.7335 95 47.5C95 21.2665 73.7335 0 47.5 0ZM30.8527 25.0193C35.4004 20.4716 41.5685 17.9167 48 17.9167C54.4315 17.9167 60.5996 20.4716 65.1473 25.0193C69.6951 29.5671 72.25 35.7352 72.25 42.1667C72.25 51.5711 66.156 60.5627 59.6731 67.4058C56.4725 70.7841 53.2652 73.5468 50.8557 75.4654C49.6772 76.4039 48.6934 77.1373 48 77.639C47.3066 77.1373 46.3228 76.4039 45.1443 75.4654C42.7348 73.5468 39.5275 70.7841 36.3269 67.4058C29.844 60.5627 23.75 51.5711 23.75 42.1667C23.75 35.7352 26.3049 29.5671 30.8527 25.0193ZM49.1094 81.7474L48 80.0833C49.1094 81.7474 49.1099 81.7471 49.1106 81.7467L49.1124 81.7455L49.1177 81.7419L49.1355 81.7299L49.199 81.687C49.2536 81.6499 49.3323 81.5961 49.4335 81.526C49.636 81.3857 49.9288 81.1802 50.2989 80.9129C51.039 80.3784 52.0896 79.5961 53.3474 78.5945C55.8598 76.5939 59.215 73.7055 62.5769 70.1567C69.219 63.1457 76.25 53.1789 76.25 42.1667C76.25 34.6743 73.2737 27.4888 67.9758 22.1909C62.6779 16.893 55.4924 13.9167 48 13.9167C40.5076 13.9167 33.3221 16.893 28.0242 22.1909C22.7263 27.4888 19.75 34.6743 19.75 42.1667C19.75 53.1789 26.781 63.1457 33.4231 70.1567C36.785 73.7055 40.1402 76.5939 42.6526 78.5945C43.9104 79.5961 44.961 80.3784 45.7011 80.9129C46.0712 81.1802 46.364 81.3857 46.5665 81.526C46.6677 81.5961 46.7464 81.6499 46.801 81.687L46.8645 81.7299L46.8823 81.7419L46.8876 81.7455L46.8894 81.7467C46.8901 81.7471 46.8906 81.7474 48 80.0833L46.8906 81.7474C47.5624 82.1953 48.4376 82.1953 49.1094 81.7474ZM41.25 42.1667C41.25 38.4387 44.2721 35.4167 48 35.4167C51.7279 35.4167 54.75 38.4387 54.75 42.1667C54.75 45.8946 51.7279 48.9167 48 48.9167C44.2721 48.9167 41.25 45.8946 41.25 42.1667ZM48 31.4167C42.0629 31.4167 37.25 36.2296 37.25 42.1667C37.25 48.1037 42.0629 52.9167 48 52.9167C53.9371 52.9167 58.75 48.1037 58.75 42.1667C58.75 36.2296 53.9371 31.4167 48 31.4167Z" fill="#EBB67A"/>
</svg>
