<svg width="646" height="646" viewBox="0 0 646 646" fill="none" xmlns="http://www.w3.org/2000/svg">
<g clip-path="url(#clip0_260_54)">
<path d="M646 324.884C646 145.619 501.457 0 323 0C144.542 0 0 145.35 0 324.884C0 487.192 118.164 621.775 272.666 646V418.823H190.57V324.884H272.397V253.286C272.397 171.997 320.847 126.777 394.598 126.777C429.859 126.777 466.735 133.237 466.735 133.237V213.18H426.36C385.985 213.18 373.603 238.213 373.603 264.053V324.884H462.967L448.701 419.092H373.334V646C528.105 621.775 646 487.192 646 324.884Z" fill="white"/>
</g>
<defs>
<clipPath id="clip0_260_54">
<rect width="646" height="646" fill="white"/>
</clipPath>
</defs>
</svg>
