<svg width="363" height="363" viewBox="0 0 363 363" fill="none" xmlns="http://www.w3.org/2000/svg">
<path d="M151.25 151.25C184.663 151.25 211.75 124.163 211.75 90.75C211.75 57.3368 184.663 30.25 151.25 30.25C117.837 30.25 90.75 57.3368 90.75 90.75C90.75 124.163 117.837 151.25 151.25 151.25Z" stroke="#914D1E" stroke-width="8"/>
<path d="M287.375 30.25C287.375 30.25 317.625 48.4 317.625 90.75C317.625 133.1 287.375 151.25 287.375 151.25" stroke="#914D1E" stroke-width="8" stroke-linecap="round"/>
<path d="M257.125 60.5C257.125 60.5 272.25 69.575 272.25 90.75C272.25 111.925 257.125 121 257.125 121" stroke="#914D1E" stroke-width="8" stroke-linecap="round"/>
<path d="M196.625 311.803C182.872 315.536 167.488 317.625 151.25 317.625C92.7769 317.625 45.375 290.538 45.375 257.125C45.375 223.712 92.7769 196.625 151.25 196.625C209.723 196.625 257.125 223.712 257.125 257.125C257.125 262.348 255.966 267.416 253.79 272.25" stroke="#914D1E" stroke-width="8" stroke-linecap="round"/>
</svg>
