<svg width="66" height="66" viewBox="0 0 66 66" fill="none" xmlns="http://www.w3.org/2000/svg">
<path d="M27.5 27.5C33.5751 27.5 38.5 22.5751 38.5 16.5C38.5 10.4249 33.5751 5.5 27.5 5.5C21.4249 5.5 16.5 10.4249 16.5 16.5C16.5 22.5751 21.4249 27.5 27.5 27.5Z" stroke="#914D1E" stroke-width="2"/>
<path d="M52.25 5.5C52.25 5.5 57.75 8.8 57.75 16.5C57.75 24.2 52.25 27.5 52.25 27.5" stroke="#914D1E" stroke-width="2" stroke-linecap="round"/>
<path d="M46.75 11C46.75 11 49.5 12.65 49.5 16.5C49.5 20.35 46.75 22 46.75 22" stroke="#914D1E" stroke-width="2" stroke-linecap="round"/>
<path d="M35.75 56.6915C33.2494 57.3702 30.4524 57.75 27.5 57.75C16.8685 57.75 8.25 52.825 8.25 46.75C8.25 40.675 16.8685 35.75 27.5 35.75C38.1315 35.75 46.75 40.675 46.75 46.75C46.75 47.6996 46.5393 48.6211 46.1436 49.5" stroke="#914D1E" stroke-width="2" stroke-linecap="round"/>
</svg>
