<svg width="647" height="646" viewBox="0 0 647 646" fill="none" xmlns="http://www.w3.org/2000/svg">
<g clip-path="url(#clip0_260_56)">
<path d="M457.752 0.00026202C483.008 -0.870408 508.177 3.40626 531.722 12.5693C555.268 21.7323 576.697 35.5895 594.701 53.2953C612.056 71.2704 625.626 92.5368 634.609 115.838C643.591 139.138 647.805 164.001 647 188.955V457.045C647 513.032 628.668 561.213 593.622 595.128C556.445 629.399 507.246 647.675 456.674 646H190.326C140.177 647.551 91.4428 629.268 54.7254 595.128C36.5244 576.926 22.2724 555.176 12.8573 531.235C3.44207 507.293 -0.934568 481.673 -1.71387e-05 455.969V188.955C-1.71387e-05 75.3669 75.4833 0.00026202 189.247 0.00026202H457.752ZM459.1 60.0244H190.326C151.236 60.0244 117.538 71.5986 95.1629 93.6703C83.2067 106.385 73.9409 121.377 67.9194 137.749C61.8978 154.12 59.2442 171.536 60.1171 188.955V455.969C60.1171 496.344 71.7091 528.644 95.1629 552.33C121.321 575.43 155.437 587.493 190.326 585.976H456.674C491.563 587.493 525.679 575.43 551.837 552.33C564.396 539.925 574.235 525.049 580.732 508.646C587.229 492.243 590.242 474.672 589.579 457.045V188.955C590.448 154.305 577.895 120.655 554.533 95.0161C541.798 83.0784 526.783 73.8269 510.386 67.8147C493.989 61.8025 476.546 59.1529 459.1 60.0244ZM323.5 155.04C414.889 155.04 490.642 230.407 490.642 321.924C490.642 366.184 473.032 408.631 441.687 439.928C410.342 471.225 367.829 488.807 323.5 488.807C279.171 488.807 236.658 471.225 205.313 439.928C173.968 408.631 156.358 366.184 156.358 321.924C156.358 277.663 173.968 235.216 205.313 203.919C236.658 172.623 279.171 155.04 323.5 155.04ZM323.5 214.795C295.159 214.937 268.019 226.241 247.979 246.25C227.938 266.259 216.617 293.357 216.475 321.654C216.617 349.952 227.938 377.05 247.979 397.059C268.019 417.068 295.159 428.372 323.5 428.514C351.841 428.372 378.981 417.068 399.021 397.059C419.062 377.05 430.383 349.952 430.525 321.654C430.383 293.357 419.062 266.259 399.021 246.25C378.981 226.241 351.841 214.937 323.5 214.795ZM497.112 113.319C507.121 113.319 516.721 117.29 523.799 124.357C530.877 131.424 534.853 141.009 534.853 151.003C534.853 160.997 530.877 170.582 523.799 177.649C516.721 184.716 507.121 188.686 497.112 188.686C487.102 188.686 477.502 184.716 470.424 177.649C463.346 170.582 459.37 160.997 459.37 151.003C459.37 141.009 463.346 131.424 470.424 124.357C477.502 117.29 487.102 113.319 497.112 113.319Z" fill="white"/>
</g>
<defs>
<clipPath id="clip0_260_56">
<rect width="647" height="646" fill="white"/>
</clipPath>
</defs>
</svg>
