<svg width="539" height="539" viewBox="0 0 539 539" fill="none" xmlns="http://www.w3.org/2000/svg">
<path d="M89.8332 449.166C77.4811 449.166 66.9107 444.772 58.122 435.983C49.3333 427.195 44.9315 416.617 44.9165 404.25V134.75C44.9165 122.398 49.3183 111.827 58.122 103.039C66.9257 94.2498 77.4961 89.848 89.8332 89.833H449.166C461.519 89.833 472.096 94.2348 480.9 103.039C489.704 111.842 494.098 122.413 494.083 134.75V404.25C494.083 416.602 489.689 427.18 480.9 435.983C472.111 444.787 461.534 449.181 449.166 449.166H89.8332ZM269.5 291.958L89.8332 179.666V404.25H449.166V179.666L269.5 291.958ZM269.5 247.041L449.166 134.75H89.8332L269.5 247.041ZM89.8332 179.666V134.75V404.25V179.666Z" fill="#914D1E"/>
</svg>
