<svg width="34" height="34" viewBox="0 0 34 34" fill="none" xmlns="http://www.w3.org/2000/svg">
<g clip-path="url(#clip0_390_58)">
<path d="M26.541 31.8844H2.10352V5.32186H17.0316L19.18 3.25211L19.1248 3.19686H2.10352C0.929453 3.19686 -0.0214844 4.14886 -0.0214844 5.32186V31.8844C-0.0214844 33.0584 0.929453 34.0094 2.10352 34.0094H26.541C27.7151 34.0094 28.666 33.0584 28.666 31.8844V16.323L26.541 18.3513V31.8833V31.8844ZM32.3476 1.37573C31.3892 0.456672 30.331 -0.00976562 29.2015 -0.00976562C27.4346 -0.00976562 26.1458 1.13136 25.7951 1.48092C25.2979 1.9718 11.2134 16.0361 11.2134 16.0361C11.1029 16.1487 11.0221 16.2858 10.9807 16.4399C10.5993 17.8487 8.68677 24.109 8.6687 24.1717C8.56989 24.4925 8.65808 24.8421 8.89502 25.0759C9.06395 25.2459 9.29133 25.3362 9.52295 25.3362C9.61433 25.3362 9.7057 25.3234 9.79602 25.2947C9.86083 25.2735 16.3208 23.1846 17.3833 22.8669C17.5236 22.8255 17.6511 22.75 17.7563 22.647C18.4267 21.985 31.3733 9.24036 32.4209 8.15767C33.5046 7.03992 34.0423 5.87755 34.0221 4.70136C34.0019 3.53898 33.4377 2.42017 32.3486 1.3768L32.3476 1.37573ZM30.893 6.67761C30.3023 7.28748 25.6719 11.8626 17.1315 20.2755L16.4781 20.9204C15.4995 21.2232 13.1546 21.9765 11.3823 22.5482C11.9529 20.6644 12.6371 18.3874 12.9431 17.3111C14.7675 15.4889 26.8353 3.44017 27.2933 2.98861C27.3825 2.89936 28.1975 2.1163 29.2005 2.1163C29.77 2.1163 30.3193 2.37555 30.876 2.91105C31.5422 3.55067 31.8854 4.16373 31.895 4.73855C31.9056 5.3293 31.5677 5.98273 30.893 6.67973V6.67761Z" fill="#D38932"/>
</g>
<defs>
<clipPath id="clip0_390_58">
<rect width="34" height="34" fill="white"/>
</clipPath>
</defs>
</svg>
