<svg width="32" height="32" viewBox="0 0 32 32" fill="none" xmlns="http://www.w3.org/2000/svg">
<path d="M30.6085 0H1.39116C0.814844 0 0.347656 0.467187 0.347656 1.0435C0.347656 1.61981 0.814844 2.087 1.39116 2.087H14.9564V4.92075C11.672 5.24244 8.63359 7.08019 6.31091 10.1771C3.81128 13.5099 2.43466 17.9249 2.43466 22.6087C2.43466 25.5779 3.01691 28.6266 4.21003 31.3724C4.37566 31.7535 4.75147 32 5.16709 32C6.95897 32 26.06 32 26.8327 32C27.2483 32 27.6242 31.7534 27.7898 31.3724C28.9827 28.6266 29.5651 25.578 29.5651 22.6087C29.5651 17.9248 28.1885 13.5098 25.6888 10.1771C23.3662 7.08006 20.3277 5.24238 17.0433 4.92069V2.08694H30.6085C31.1848 2.08694 31.652 1.61975 31.652 1.04344C31.652 0.467125 31.1848 0 30.6085 0ZM10.7825 26.7826V29.9131H5.86541C5.35041 28.5939 4.97934 27.1872 4.75903 25.7391H10.8875C10.8187 26.0764 10.7825 26.4253 10.7825 26.7826ZM19.1303 29.9131H12.8694V26.7826C12.8694 25.0565 14.2737 23.6522 15.9998 23.6522C17.726 23.6522 19.1303 25.0565 19.1303 26.7826V29.9131ZM26.1343 29.9131H21.2173V26.7826C21.2173 26.4253 21.181 26.0764 21.1123 25.7391H27.2407C27.0203 27.1872 26.6492 28.5939 26.1343 29.9131ZM27.4782 22.6087C27.4782 22.9573 27.4685 23.3052 27.4512 23.6522H20.1709C19.2181 22.3858 17.7031 21.5653 15.9998 21.5653C14.2966 21.5653 12.7816 22.3858 11.8288 23.6522H4.54853C4.53116 23.3052 4.52159 22.9573 4.52159 22.6087C4.52159 21.5369 4.60116 20.49 4.75241 19.4783H27.2473C27.3986 20.49 27.4782 21.5369 27.4782 22.6087ZM25.1767 13.2174C25.8708 14.4754 26.4287 15.8806 26.8216 17.3913H5.17816C5.57097 15.8806 6.12897 14.4755 6.82309 13.2174H25.1767ZM23.7946 11.1304H8.20503C10.2536 8.54175 12.9933 6.9565 15.9998 6.9565C19.0064 6.9565 21.7461 8.54175 23.7946 11.1304Z" fill="#D38932"/>
</svg>
