<svg width="46" height="46" viewBox="0 0 46 46" fill="none" xmlns="http://www.w3.org/2000/svg">
<path fill-rule="evenodd" clip-rule="evenodd" d="M1.9165 23.0007C5.8035 15.0427 13.7845 9.58398 22.9998 9.58398C32.2152 9.58398 40.1962 15.0427 44.0832 23.0007C40.1962 30.9587 32.2152 36.4173 22.9998 36.4173C13.7845 36.4173 5.8035 30.9587 1.9165 23.0007ZM22.9998 29.709C23.8808 29.709 24.7531 29.5355 25.567 29.1983C26.3809 28.8612 27.1204 28.3671 27.7433 27.7442C28.3663 27.1212 28.8604 26.3817 29.1975 25.5678C29.5347 24.7539 29.7082 23.8816 29.7082 23.0007C29.7082 22.1197 29.5347 21.2474 29.1975 20.4335C28.8604 19.6196 28.3663 18.8801 27.7433 18.2571C27.1204 17.6342 26.3809 17.1401 25.567 16.803C24.7531 16.4658 23.8808 16.2923 22.9998 16.2923C21.2207 16.2923 19.5144 16.9991 18.2563 18.2571C16.9983 19.5152 16.2915 21.2215 16.2915 23.0007C16.2915 24.7798 16.9983 26.4861 18.2563 27.7442C19.5144 29.0022 21.2207 29.709 22.9998 29.709Z" fill="#D38932"/>
</svg>
