<svg width="46" height="46" viewBox="0 0 46 46" fill="none" xmlns="http://www.w3.org/2000/svg">
<path fill-rule="evenodd" clip-rule="evenodd" d="M36.267 32.2L42.3428 38.2758L40.3112 40.3094L7.7815 7.78358L9.81317 5.75L15.0648 10.9978C17.6049 10.059 20.2918 9.58004 22.9998 9.58333C32.2152 9.58333 40.1962 15.042 44.0832 23C42.2944 26.6761 39.6058 29.8407 36.267 32.2ZM20.7458 16.6808L29.3191 25.254C29.7468 24.0577 29.826 22.7645 29.5475 21.525C29.269 20.2854 28.6442 19.1504 27.7458 18.2521C26.8475 17.3537 25.7125 16.7289 24.4729 16.4504C23.2334 16.1719 21.9402 16.2511 20.7439 16.6788L20.7458 16.6808ZM30.9368 35.0041C28.396 35.9425 25.7084 36.4208 22.9998 36.4167C13.7845 36.4167 5.8035 30.958 1.9165 23C3.70527 19.3239 6.39386 16.1593 9.73267 13.8L16.6806 20.746C16.2529 21.9423 16.1737 23.2355 16.4522 24.475C16.7307 25.7146 17.3555 26.8496 18.2538 27.7479C19.1522 28.6463 20.2872 29.2711 21.5267 29.5496C22.7663 29.8281 24.0594 29.7489 25.2558 29.3212L30.9368 35.0022V35.0041Z" fill="#D38932"/>
</svg>
