<svg width="57" height="57" viewBox="0 0 57 57" fill="none" xmlns="http://www.w3.org/2000/svg">
<g clip-path="url(#clip0_80_62)">
<path d="M54.5218 0H2.47836C1.45181 0 0.619629 0.832178 0.619629 1.85873C0.619629 2.88529 1.45181 3.71747 2.47836 3.71747H26.6415V8.76509C20.7912 9.33809 15.379 12.6116 11.2417 18.128C6.78921 24.0646 4.3371 31.9288 4.3371 40.2718C4.3371 45.5606 5.37423 50.9911 7.49948 55.8822C7.7945 56.5609 8.46392 57 9.20425 57C12.396 57 46.4197 57 47.7961 57C48.5364 57 49.2059 56.5608 49.5009 55.882C51.6257 50.9912 52.6632 45.5608 52.6632 40.2717C52.6632 31.9286 50.2111 24.0644 45.7586 18.1279C41.6213 12.6114 36.2091 9.33798 30.3588 8.76497V3.71736H54.5218C55.5483 3.71736 56.3805 2.88518 56.3805 1.85862C56.3805 0.832066 55.5484 0 54.5218 0ZM19.2066 47.7066V53.2826H10.4481C9.53078 50.9328 8.86982 48.4272 8.47739 45.8478H19.3937C19.2712 46.4485 19.2066 47.0701 19.2066 47.7066ZM34.0762 53.2826H22.924V47.7066C22.924 44.6319 25.4254 42.1305 28.5001 42.1305C31.5747 42.1305 34.0762 44.6319 34.0762 47.7066V53.2826ZM46.5522 53.2826H37.7936V47.7066C37.7936 47.0701 37.7291 46.4485 37.6066 45.8478H48.5229C48.1302 48.4272 47.4693 50.9328 46.5522 53.2826ZM48.9458 40.2717C48.9458 40.8926 48.9287 41.5125 48.8978 42.1305H35.9298C34.2326 39.8747 31.534 38.4131 28.5001 38.4131C25.4662 38.4131 22.7676 39.8747 21.0704 42.1305H8.10244C8.07149 41.5125 8.05445 40.8927 8.05445 40.2717C8.05445 38.3626 8.19618 36.4978 8.46559 34.6956H48.5347C48.8041 36.4978 48.9458 38.3626 48.9458 40.2717ZM44.8463 23.5434C46.0827 25.7844 47.0765 28.2873 47.7763 30.9783H9.22396C9.92365 28.2873 10.9176 25.7845 12.154 23.5434H44.8463ZM42.3845 19.8261H14.6156C18.2646 15.215 23.1446 12.3913 28.5001 12.3913C33.8555 12.3913 38.7356 15.215 42.3845 19.8261Z" fill="#914D1E"/>
</g>
<defs>
<clipPath id="clip0_80_62">
<rect width="57" height="57" fill="white"/>
</clipPath>
</defs>
</svg>
