<svg width="326" height="333" viewBox="0 0 326 333" fill="none" xmlns="http://www.w3.org/2000/svg">
<path d="M315.133 0H10.8669C4.86523 0 0 4.86167 0 10.8589C0 16.8562 4.86523 21.7178 10.8669 21.7178H152.134V51.2066C117.931 54.5541 86.2888 73.6782 62.1006 105.906C36.0698 140.588 21.7338 186.531 21.7338 235.272C21.7338 266.17 27.7973 297.895 40.2223 326.469C41.9471 330.435 45.8608 333 50.189 333C68.8494 333 267.765 333 275.812 333C280.14 333 284.054 330.434 285.779 326.469C298.201 297.896 304.267 266.171 304.267 235.272C304.267 186.53 289.931 140.586 263.9 105.905C239.712 73.6769 208.07 54.5535 173.867 51.2059V21.7172H315.133C321.134 21.7172 326 16.8555 326 10.8583C326 4.86102 321.135 0 315.133 0ZM108.667 278.707V311.283H57.4612C52.098 297.555 48.2338 282.917 45.9395 267.848H109.76C109.044 271.357 108.667 274.988 108.667 278.707ZM195.6 311.283H130.4V278.707C130.4 260.744 145.024 246.131 163 246.131C180.976 246.131 195.6 260.744 195.6 278.707V311.283ZM268.539 311.283H217.334V278.707C217.334 274.988 216.956 271.357 216.24 267.848H280.061C277.766 282.917 273.901 297.555 268.539 311.283ZM282.534 235.272C282.534 238.899 282.434 242.52 282.253 246.131H206.437C196.514 232.952 180.737 224.413 163 224.413C145.263 224.413 129.486 232.952 119.563 246.131H43.7474C43.5665 242.52 43.4669 238.9 43.4669 235.272C43.4669 224.118 44.2954 213.224 45.8705 202.696H280.13C281.705 213.224 282.534 224.118 282.534 235.272ZM258.566 137.543C265.795 150.635 271.605 165.257 275.696 180.978H50.3042C54.3949 165.257 60.2059 150.636 67.4344 137.543H258.566ZM244.174 115.826H81.8258C103.159 88.8876 131.69 72.3911 163 72.3911C194.31 72.3911 222.841 88.8876 244.174 115.826Z" fill="#914D1E"/>
</svg>
