<svg width="336" height="317" viewBox="0 0 336 317" fill="none" xmlns="http://www.w3.org/2000/svg">
<path fill-rule="evenodd" clip-rule="evenodd" d="M0 317.251H336V294.973C336.028 271.901 327.81 252.133 311.346 235.669C294.882 219.205 275.1 210.973 252 210.973H84C60.928 211.001 41.16 219.233 24.696 235.669C8.23201 252.105 0 271.873 0 294.973V317.251ZM108.696 144.319C125.132 160.755 144.9 168.973 168 168.973C191.212 169.085 210.994 160.867 227.346 144.319C243.698 127.771 251.916 107.989 252 84.9729C252.084 61.9569 243.866 42.1889 227.346 25.6689C210.826 9.14894 191.044 0.91694 168 0.97294C144.956 1.02894 125.188 9.26094 108.696 25.6689C92.204 42.0769 83.972 61.8449 84 84.9729C84.028 108.101 92.26 127.883 108.696 144.319Z" fill="#914D1E"/>
</svg>
